<svg xmlns="http://www.w3.org/2000/svg" width="20.039" height="18.369" viewBox="0 0 20.039 18.369"><defs><style>.a{fill:#676464;}</style></defs><g transform="translate(0 -21.329)"><path class="a" d="M19.031,23.071l-.734-.734a3.441,3.441,0,0,0-4.866,0h0L4.053,31.715a2.433,2.433,0,0,0,0,3.441l.489.489a2.517,2.517,0,0,0,3.441,0l6.924-6.924a.417.417,0,1,0-.58-.6l-.01.01L7.393,35.055a1.654,1.654,0,0,1-2.26,0l-.489-.489a1.6,1.6,0,0,1,0-2.26h0l9.378-9.378a2.672,2.672,0,0,1,3.686,0l.734.734a2.607,2.607,0,0,1,0,3.686L7.983,37.8a3.615,3.615,0,0,1-5.111,0l-.979-.978a3.615,3.615,0,0,1,0-5.111l8-8a.417.417,0,1,0-.58-.6l-.01.01-8,8a4.449,4.449,0,0,0,0,6.291h0l.979.979a4.449,4.449,0,0,0,6.291,0h0L19.031,27.937a3.441,3.441,0,0,0,0-4.866Z" transform="translate(0 0)"/><path class="a" d="M5.427,39.7a4.426,4.426,0,0,1-3.146-1.3L1.3,37.417a4.449,4.449,0,0,1,0-6.291h0l8-8a.417.417,0,0,1,.6.58l-.01.01-8,8a3.615,3.615,0,0,0,0,5.111l.979.979a3.615,3.615,0,0,0,5.111,0L18.441,27.347a2.607,2.607,0,0,0,0-3.686l-.734-.734a2.672,2.672,0,0,0-3.686,0L4.643,32.306a1.6,1.6,0,0,0,0,2.26h0l.489.489a1.654,1.654,0,0,0,2.26,0l6.924-6.924a.417.417,0,0,1,.6.58l-.01.01L7.983,35.646a2.517,2.517,0,0,1-3.441,0l-.489-.489a2.433,2.433,0,0,1,0-3.441l9.378-9.378a3.441,3.441,0,0,1,4.866,0h0l.734.734a3.441,3.441,0,0,1,0,4.866h0L8.573,38.4A4.426,4.426,0,0,1,5.427,39.7Z" transform="translate(0 0)"/></g></svg>